<svg xmlns="http://www.w3.org/2000/svg" xmlns:xlink="http://www.w3.org/1999/xlink" xmlns:serif="http://www.serif.com/" width="100%" height="100%" viewBox="0 0 401 51" xml:space="preserve" style="fill-rule:evenodd;clip-rule:evenodd;stroke-linejoin:round;stroke-miterlimit:2;">  <g transform="matrix(1,0,0,1,-2,-29)">    <g transform="matrix(0.24,0,0,0.24,-765.12,-243.6)">      <g transform="matrix(4.16667,0,0,4.16667,4863.88,1340.76)">        <path d="M0,-47.367l-8.996,0l-11.374,20.288l-11.487,-20.137l-0.085,-0.151l-9.413,0l16.648,28.733l0,18.976l8.479,0l-0,-19.048l15.975,-28.216l0.253,-0.445Zm-36.63,40.051l-20.539,0l0,-40.051l-8.478,0l0,47.709l29.017,0l0,-7.658Zm-68.179,7.658l31.757,0l0,-7.658l-23.276,0l0,-12.677l19.785,0l0,-7.52l-19.785,0l0,-12.196l22.317,0l0,-7.658l-30.798,0l0,47.709Zm-19.383,-40.051l13.829,0l0,-7.658l-36.138,0l0,7.658l13.829,0l0,40.051l8.48,0l0,-40.051Zm-27.591,23.043l0,-30.701l-8.479,0l0,30.29c0,6.89 -3.215,10.24 -9.829,10.24c-6.661,0 -9.898,-3.35 -9.898,-10.24l0,-30.29l-8.48,0l0,30.701c0,10.871 7.042,17.624 18.378,17.624c11.293,0 18.308,-6.753 18.308,-17.624m-69.616,17.008l29.018,0l0,-7.658l-20.539,0l0,-40.051l-8.479,0l0,47.709Zm-6.719,-23.855c0,-13.95 -10.579,-24.47 -24.607,-24.47c-14.028,0 -24.607,10.52 -24.607,24.47c0,13.951 10.579,24.471 24.607,24.471c14.028,0 24.607,-10.52 24.607,-24.471m-8.455,0c0,9.835 -6.793,16.973 -16.152,16.973c-9.359,0 -16.152,-7.138 -16.152,-16.973c0,-9.835 6.793,-16.973 16.152,-16.973c9.359,0 16.152,7.138 16.152,16.973m-67.128,-12.05c0,-2.934 2.273,-4.83 5.79,-4.83c3.42,0 5.807,1.345 7.514,4.235l0.307,0.518l6.514,-4.262l-0.284,-0.475c-3.1,-5.189 -7.608,-7.606 -14.188,-7.606c-8.199,0 -13.926,5.22 -13.926,12.695c0,7.451 4.763,11.073 11.912,14.219l3.216,1.437c4.302,1.935 7.122,3.492 7.122,7.348c0,3.35 -2.998,5.515 -7.639,5.515c-4.504,0 -7.974,-2.071 -10.033,-5.99l-0.263,-0.5l-6.923,3.462l-0.271,0.137l0.275,0.52c3.444,6.512 9.581,10.098 17.283,10.098c9.858,0 15.981,-5.153 15.981,-13.448c0,-7.938 -4.442,-11.476 -12.117,-14.904l-3.218,-1.437c-5.118,-2.283 -7.052,-3.455 -7.052,-6.732m-21.842,10.597c3.662,-1.758 5.753,-5.273 5.753,-9.706c0,-7.83 -5.52,-12.695 -14.406,-12.695l-17.144,0l0,47.709l18.308,0c9.477,0 15.364,-5.285 15.364,-13.791c0,-5.773 -2.721,-9.747 -7.875,-11.517m-17.684,-2.73l-0.001,-12.515l8.484,0c4.521,0 6.91,2.152 6.91,6.224c0,4.057 -2.405,6.291 -6.772,6.291l-8.621,0l0,0.001l-0.001,-0.001l0.001,0Zm17.447,13.7c-0,4.565 -2.793,7.183 -7.662,7.183l-9.786,-0l0.001,-14.435l9.374,-0c5.13,-0 8.073,2.643 8.073,7.252m-39.607,14.338l8.996,-0l-20.817,-48.318l-0.149,-0.349l-1.17,-0l-20.553,47.862l-0.343,0.805l8.652,-0l3.628,-8.695l18.127,-0l3.629,8.695Zm-19.05,-15.987l0,0.001l0,-0.001l6.424,-15.288l6.295,15.288l-12.719,-0Z" style="fill:#231f20;fill-rule:nonzero;"></path>      </g>    </g>  </g></svg>